#!OML:ASF X:\für Bonn\!DataBase\2005_08_11_Bastian_Final\c3d\Bastian.ASF
:FULLY-SPECIFIED
:DEGREES
61
root 23.4084 16.6651 -3.44363 1069.65 -75.0677 -3.82781
lowerback 49.7275 -2.61093 12.3532
upperback 19.2791 -0.601167 5.8194
thorax 1.61882 -1.21746 0.782203
lowerneck -9.35984 -7.04711 -3.56398
upperneck -1.03092 -9.17378 2.02891
head 1.52188 -4.59143 0.840133
rclavicle -3.18055e-014 2.70347e-014
rhumerus 25.8796 3.20521 -65.1351
rradius 17.0014
rwrist -2.59146
rhand -22.4153 -3.67247
rfingers 7.12502
rthumb 4.00772 -33.6145
lclavicle -3.18055e-014 2.70347e-014
lhumerus -4.35177 -23.3384 -273.458
lradius 49.9004
lwrist -335.983
lhand -15.1935 -12.2148
lfingers 7.12502
lthumb 10.9781 17.4782
rfemur -22.1538 -6.74102 20.5357
rtibia 36.1393
rfoot 1.53557 -2.90889
rtoes -10.5551
lfemur -19.4268 4.64794 -19.1558
ltibia 72.0606
lfoot -4.75595 -9.95408
ltoes -20.6353
62
root 23.3664 16.6644 -3.45823 1069.98 -75.1412 -3.61161
lowerback 50.535 -2.67939 12.6715
upperback 19.3254 -0.482114 5.74215
thorax 1.61261 -1.15228 0.561783
lowerneck -9.59659 -7.02493 -3.30654
upperneck -1.57022 -9.17467 1.9511
head 1.36845 -4.60028 0.776225
rclavicle 3.97569e-014 4.92986e-014
rhumerus 26.9687 2.75771 -64.8381
rradius 16.8141
rwrist -2.68518
rhand -22.67 -3.66856
rfingers 7.12502
rthumb 3.76182 -33.6151
lclavicle 3.97569e-014 4.92986e-014
lhumerus -4.20254 -23.417 -273.579
lradius 49.4852
lwrist -336.032
lhand -15.1386 -11.8918
lfingers 7.12502
lthumb 11.0311 17.7983
rfemur -22.881 -6.96252 20.6634
rtibia 36.5501
rfoot 1.59296 -2.66391
rtoes -10.1075
lfemur -20.6931 4.66989 -19.2841
ltibia 71.2299
lfoot -5.06738 -10.5299
ltoes -20.0328
63
root 23.3274 16.6643 -3.46877 1070.13 -75.2141 -3.22414
lowerback 51.3986 -2.77742 12.965
upperback 19.3418 -0.39125 5.63205
thorax 1.57297 -1.1009 0.331349
lowerneck -9.79115 -6.99298 -3.1442
upperneck -2.12546 -9.15629 1.98116
head 1.21388 -4.59796 0.764318
rclavicle -4.77083e-015 -4.13472e-014
rhumerus 27.9997 2.52903 -64.4073
rradius 16.7023
rwrist -2.93393
rhand -22.9014 -3.72762
rfingers 7.12502
rthumb 3.53836 -33.678
lclavicle -4.77083e-015 -4.13472e-014
lhumerus -4.1135 -23.5071 -273.726
lradius 49.0991
lwrist -336
lhand -15.0852 -11.5957
lfingers 7.12502
lthumb 11.0826 18.0917
rfemur -23.615 -7.20864 20.7377
rtibia 36.9687
rfoot 1.66459 -2.34449
rtoes -9.77705
lfemur -21.8918 4.67392 -19.4886
ltibia 70.1532
lfoot -5.17908 -11.1194
ltoes -19.9212
64
root 23.2872 16.6659 -3.47818 1070.07 -75.2367 -2.60881
lowerback 52.2497 -2.89945 13.2426
upperback 19.333 -0.322426 5.4886
thorax 1.51309 -1.05514 0.0805893
lowerneck -9.95655 -6.95556 -2.89213
upperneck -2.68991 -9.14182 1.94648
head 1.04377 -4.60055 0.719291
rclavicle 3.02153e-014 2.06736e-014
rhumerus 28.9583 2.32993 -63.9664
rradius 16.5997
rwrist -3.17891
rhand -23.1627 -3.81596
rfingers 7.12502
rthumb 3.286 -33.7704
lclavicle 3.02153e-014 2.06736e-014
lhumerus -4.08942 -23.6757 -273.901
lradius 48.7644
lwrist -335.975
lhand -15.0489 -11.215
lfingers 7.12502
lthumb 11.1176 18.4705
rfemur -24.3449 -7.40522 20.7318
rtibia 37.4056
rfoot 1.68883 -2.12692
rtoes -9.39859
lfemur -23.0197 4.57761 -19.7625
ltibia 68.8626
lfoot -5.01494 -11.6806
ltoes -19.5056
65
root 23.2468 16.6672 -3.48576 1069.82 -75.2261 -1.78839
lowerback 53.0575 -3.03101 13.4861
upperback 19.3358 -0.282825 5.33931
thorax 1.47467 -1.02223 -0.153503
lowerneck -10.1909 -6.91758 -2.69398
upperneck -3.19046 -9.12032 1.93754
head 0.910719 -4.59925 0.687735
rclavicle 7.15625e-014 8.11041e-014
rhumerus 29.9013 2.07057 -63.5471
rradius 16.4856
rwrist -3.33887
rhand -23.3794 -3.88932
rfingers 7.12502
rthumb 3.07669 -33.8469
lclavicle 7.15625e-014 8.11041e-014
lhumerus -4.08255 -23.8509 -274.05
lradius 48.3862
lwrist -335.954
lhand -15.0734 -10.9505
lfingers 7.12502
lthumb 11.094 18.7363
rfemur -25.0917 -7.52278 20.6395
rtibia 37.8993
rfoot 1.62145 -1.98886
rtoes -8.82553
lfemur -24.0549 4.40363 -20.0965
ltibia 67.399
lfoot -5.0226 -12.1585
ltoes -19.1329
66
root 23.2066 16.6648 -3.49262 1069.31 -75.2106 -0.628454
lowerback 53.8194 -3.13706 13.6539
upperback 19.2946 -0.235002 5.17463
thorax 1.38898 -0.985406 -0.376266
lowerneck -10.2805 -6.87621 -2.46964
upperneck -3.74472 -9.10143 1.89303
head 0.733392 -4.60146 0.647701
rclavicle 1.59028e-014 3.97569e-015
rhumerus 30.7276 1.90849 -63.0573
rradius 16.4076
rwrist -3.58652
rhand -23.6446 -3.96302
rfingers 7.12502
rthumb 2.82057 -33.9241
lclavicle 1.59028e-014 3.97569e-015
lhumerus -4.18635 -24.0502 -274.171
lradius 48.0173
lwrist -336.03
lhand -15.0288 -10.678
lfingers 7.12502
lthumb 11.137 19.0064
rfemur -25.9468 -7.68759 20.476
rtibia 38.4458
rfoot 1.56512 -1.79302
rtoes -8.46241
lfemur -25.0752 4.23559 -20.516
ltibia 65.7852
lfoot -4.98682 -12.5208
ltoes -18.7604
67
root 23.1663 16.6619 -3.4991 1068.7 -75.2057 0.648725
lowerback 54.4918 -3.20878 13.767
upperback 19.3122 -0.199008 5.02099
thorax 1.3765 -0.954629 -0.566652
lowerneck -10.5108 -6.83236 -2.29152
upperneck -4.22793 -9.07279 1.86979
head 0.606275 -4.59837 0.615701
rclavicle 3.81667e-014 2.70347e-014
rhumerus 31.615 1.64267 -62.6138
rradius 16.3177
rwrist -3.65386
rhand -23.8712 -3.9966
rfingers 7.12502
rthumb 2.60175 -33.9605
lclavicle 3.81667e-014 2.70347e-014
lhumerus -4.22386 -24.2452 -274.313
lradius 47.607
lwrist -336.097
lhand -15.0572 -10.5394
lfingers 7.12502
lthumb 11.1096 19.1466
rfemur -26.8589 -7.84007 20.2889
rtibia 39.0372
rfoot 1.46139 -1.59164
rtoes -8.22331
lfemur -26.0569 4.05286 -20.9453
ltibia 64.0368
lfoot -4.96288 -12.6744
ltoes -17.7693
68
root 23.126 16.6585 -3.50373 1068.23 -75.1787 1.82394
lowerback 55.1238 -3.3127 13.9172
upperback 19.2808 -0.169198 4.86414
thorax 1.31936 -0.922146 -0.774285
lowerneck -10.6114 -6.78226 -2.09811
upperneck -4.73782 -9.04068 1.80804
head 0.446817 -4.59499 0.575286
rclavicle -3.18055e-015 -1.82882e-014
rhumerus 32.3916 1.34506 -62.1907
rradius 16.2557
rwrist -3.70698
rhand -24.0606 -3.98931
rfingers 7.12502
rthumb 2.41886 -33.9553
lclavicle -3.18055e-015 -1.82882e-014
lhumerus -4.38818 -24.4748 -274.409
lradius 47.2695
lwrist -336.115
lhand -15.0285 -10.378
lfingers 7.12502
lthumb 11.1373 19.3065
rfemur -27.8176 -8.06246 20.1351
rtibia 39.6601
rfoot 1.34585 -1.36782
rtoes -7.76519
lfemur -27.0527 3.85089 -21.3523
ltibia 62.1871
lfoot -5.00963 -12.5881
ltoes -16.8197
69
root 23.0851 16.6538 -3.50888 1067.65 -75.1499 3.10922
lowerback 55.7338 -3.40504 14.0402
upperback 19.2726 -0.146786 4.70164
thorax 1.29095 -0.892201 -0.976082
lowerneck -10.7473 -6.73176 -1.88188
upperneck -5.21925 -9.01158 1.71822
head 0.300366 -4.59426 0.521155
rclavicle 9.54166e-014 5.56597e-015
rhumerus 33.1507 1.01596 -61.7688
rradius 16.232
rwrist -3.71462
rhand -24.2198 -4.0595
rfingers 7.12502
rthumb 2.26508 -34.0272
lclavicle 9.54166e-014 5.56597e-015
lhumerus -4.5018 -24.6975 -274.532
lradius 46.8757
lwrist -336.183
lhand -14.9016 -10.2896
lfingers 7.12502
lthumb 11.2597 19.3882
rfemur -28.7776 -8.27738 19.9546
rtibia 40.297
rfoot 1.19211 -1.13134
rtoes -7.28653
lfemur -27.9716 3.63985 -21.7747
ltibia 60.2581
lfoot -5.13831 -12.2875
ltoes -15.9807
70
root 23.0441 16.6474 -3.51277 1067.1 -75.124 4.41285
lowerback 56.2766 -3.47424 14.1411
upperback 19.2555 -0.110876 4.5525
thorax 1.25743 -0.85568 -1.16269
lowerneck -10.7824 -6.67093 -1.63371
upperneck -5.76638 -8.97674 1.5752
head 0.113318 -4.59307 0.45187
rclavicle 3.81667e-014 1.43125e-014
rhumerus 33.8702 0.648904 -61.356
rradius 16.2157
rwrist -3.73792
rhand -24.3467 -4.03971
rfingers 7.12502
rthumb 2.14252 -34.0087
lclavicle 3.81667e-014 1.43125e-014
lhumerus -4.66993 -24.9771 -274.63
lradius 46.5445
lwrist -336.209
lhand -14.8116 -10.2225
lfingers 7.12502
lthumb 11.3465 19.4505
rfemur -29.8016 -8.53967 19.7892
rtibia 40.9353
rfoot 1.02974 -0.859334
rtoes -6.93776
lfemur -28.8768 3.39335 -22.1768
ltibia 58.2928
lfoot -5.26347 -11.7814
ltoes -14.7325
71
root 23.0027 16.6389 -3.51598 1066.71 -75.0922 5.54792
lowerback 56.7743 -3.55289 14.2778
upperback 19.2639 -0.0790496 4.42636
thorax 1.26238 -0.819065 -1.34048
lowerneck -10.8587 -6.62421 -1.39247
upperneck -6.28576 -8.96276 1.39495
head -0.058516 -4.60322 0.370386
rclavicle -3.81667e-014 -1.66979e-014
rhumerus 34.5937 0.265427 -60.9114
rradius 16.2153
rwrist -3.67916
rhand -24.4602 -4.07467
rfingers 7.12502
rthumb 2.03295 -34.0447
lclavicle -3.81667e-014 -1.66979e-014
lhumerus -4.79406 -25.2503 -274.713
lradius 46.1644
lwrist -336.187
lhand -14.5811 -10.0486
lfingers 7.12502
lthumb 11.5687 19.6121
rfemur -30.8328 -8.78805 19.6729
rtibia 41.5736
rfoot 0.894748 -0.598695
rtoes -6.49154
lfemur -29.692 3.06591 -22.4952
ltibia 56.3188
lfoot -5.44054 -11.1504
ltoes -13.4855
72
root 22.9612 16.6309 -3.51863 1066.19 -75.0426 6.81294
lowerback 57.2746 -3.63059 14.3647
upperback 19.2416 -0.0594525 4.30026
thorax 1.22848 -0.792088 -1.4926
lowerneck -10.8307 -6.55651 -1.13695
upperneck -6.83066 -8.92694 1.14715
head -0.257735 -4.60323 0.272533
rclavicle -2.8625e-014 -9.14409e-014
rhumerus 35.2973 -0.317585 -60.6637
rradius 16.1515
rwrist -3.34484
rhand -24.5009 -4.04979
rfingers 7.12502
rthumb 1.99363 -34.0202
lclavicle -2.8625e-014 -9.14409e-014
lhumerus -5.02945 -25.4753 -274.737
lradius 45.8128
lwrist -336.183
lhand -14.4059 -10.0936
lfingers 7.12502
lthumb 11.7377 19.5576
rfemur -31.8526 -9.05448 19.5138
rtibia 42.2001
rfoot 0.74343 -0.343353
rtoes -6.08089
lfemur -30.4519 2.72677 -22.8258
ltibia 54.3524
lfoot -5.59306 -10.4939
ltoes -12.2106
73
root 22.9186 16.6223 -3.52193 1065.71 -74.998 8.04832
lowerback 57.7226 -3.69319 14.4737
upperback 19.2587 -0.0277656 4.16352
thorax 1.24702 -0.752053 -1.67371
lowerneck -10.9217 -6.50234 -0.820804
upperneck -7.30674 -8.9165 0.893868
head -0.417989 -4.61722 0.157882
rclavicle 0 2.54444e-014
rhumerus 35.9984 -0.909311 -60.3711
rradius 16.1308
rwrist -3.09718
rhand -24.4964 -4.03453
rfingers 7.12502
rthumb 1.99796 -34.0049
lclavicle 0 2.54444e-014
lhumerus -5.17549 -25.7825 -274.827
lradius 45.4497
lwrist -336.119
lhand -14.1704 -10.1357
lfingers 7.12502
lthumb 11.9648 19.5024
rfemur -32.8768 -9.34091 19.3809
rtibia 42.8017
rfoot 0.607367 -0.0650016
rtoes -5.58875
lfemur -31.2083 2.3805 -23.137
ltibia 52.4028
lfoot -5.66416 -9.8457
ltoes -11.1973
74
root 22.8763 16.6121 -3.52401 1065.46 -74.9666 9.04595
lowerback 58.1614 -3.75871 14.5927
upperback 19.2643 0.00857542 4.06839
thorax 1.25654 -0.715445 -1.81514
lowerneck -10.9628 -6.42689 -0.540421
upperneck -7.8016 -8.8798 0.576377
head -0.592144 -4.61785 0.0331625
rclavicle -1.11319e-013 -2.3059e-014
rhumerus 36.6743 -1.31242 -59.8788
rradius 16.1777
rwrist -3.03171
rhand -24.433 -4.09219
rfingers 7.12502
rthumb 2.05922 -34.062
lclavicle -1.11319e-013 -2.3059e-014
lhumerus -5.34644 -26.0739 -274.864
lradius 45.1204
lwrist -336.114
lhand -14.0115 -10.0735
lfingers 7.12502
lthumb 12.1181 19.5556
rfemur -33.8985 -9.61092 19.3241
rtibia 43.3756
rfoot 0.512346 0.196307
rtoes -5.0551
lfemur -31.9675 2.05564 -23.3692
ltibia 50.4944
lfoot -5.67461 -9.29936
ltoes -10.5159
